<svg width="122" height="122" viewBox="0 0 122 122" fill="none" xmlns="http://www.w3.org/2000/svg">
<path d="M59.0199 15.5129C63.0977 16.4424 68.012 19.0708 73.0565 22.9522C78.0792 26.8168 83.1347 31.8496 87.4979 37.461C91.863 43.0748 95.504 49.2279 97.7361 55.3246C99.9713 61.4298 100.761 67.3853 99.5574 72.667C98.3723 77.8659 94.8809 82.3861 89.8521 86.2041C84.8247 90.021 78.3552 93.0598 71.4366 95.2999C57.5483 99.7963 42.2509 100.952 33.8525 99.0378C25.9115 97.2276 21.086 90.3813 18.8924 80.7889C16.7029 71.2146 17.251 59.2691 19.7945 48.1107C24.85 25.9315 42.6539 11.7824 59.0199 15.5129Z" stroke="black" stroke-width="3"/>
<path d="M103.371 45.1482L103.636 45.461L103.998 45.7719L104.382 46.0396L104.768 46.2959L105.255 46.7435C105.396 46.9181 105.514 47.1206 105.597 47.3504C105.679 47.5753 105.714 47.8033 105.722 48.0158L105.669 48.6168L105.564 49.1335L105.522 49.3163L105.551 49.347L105.881 49.6386C106.099 49.8338 106.288 50.0584 106.438 50.3064L106.768 51.1268L106.867 51.5341L106.955 51.9388L106.964 51.9528C106.967 51.9571 106.978 51.9671 106.993 51.9835L107.592 52.6248L108.098 53.4131L108.308 54.3384L108.328 54.7757L108.342 55.1876L108.586 55.5436L108.832 55.8881L109.089 56.3433C109.226 56.6601 109.295 56.9933 109.297 57.3283L109.244 57.8212L109.163 58.2834L109.076 58.7202L109.239 59.0579L109.406 59.4325L109.633 60.0731C109.687 60.2953 109.716 60.5253 109.729 60.7562L109.755 61.1707L109.763 61.4009L110.056 61.6961L110.41 62.0412L110.819 62.5671C110.931 62.7676 111.017 63.0011 111.058 63.2586C111.099 63.5174 111.092 63.7638 111.048 63.9894L110.827 64.5882L110.603 65.042L110.382 65.4844L110.439 65.7618L110.516 66.1639L110.65 66.471L111.121 67.2515L111.365 67.7638C111.541 68.2829 111.535 68.851 111.317 69.3994L111.152 69.8065L111 70.1565L111.099 70.5155L111.221 70.928L111.337 71.5795C111.359 71.7985 111.357 72.0194 111.342 72.2417L111.32 72.6572L111.286 73.0702L111.109 73.8954L110.715 74.6229L110.594 74.7875C110.739 75.1384 110.763 75.5004 110.697 75.8087C110.654 76.0091 110.583 76.1914 110.504 76.3415L110.267 76.6961L109.747 77.395C109.7 77.4568 109.685 77.5035 109.681 77.5243L109.616 77.9179L109.536 78.3204L109.353 78.9639L109.059 79.5699L108.636 80.2667C108.634 80.2755 108.634 80.2958 108.634 80.3264L108.619 81.2364L108.532 81.8296C108.477 82.026 108.397 82.2217 108.279 82.4091C108.161 82.5976 108.021 82.7577 107.869 82.8924L107.398 83.2178L106.976 83.4341L106.563 83.6645C106.547 83.6731 106.531 83.6742 106.523 83.6795L106.328 84.0077L106.128 84.3587C106.113 84.3842 106.075 84.4627 106.057 84.6189L106.007 85.1003L105.946 85.5792L105.75 86.3878L105.339 87.1355L105.084 87.4621L104.827 87.8001L104.09 88.6058L103.477 89.1871C103.313 89.3391 103.136 89.4736 102.951 89.5961L102.386 89.9121L101.984 90.0967L101.649 90.2487L101.474 90.5935L101.263 90.9902C101.142 91.2192 100.997 91.4409 100.828 91.6361L100.253 92.1541L99.9083 92.4001L99.5663 92.6347C99.3703 92.7729 99.1604 92.8899 98.9454 92.9859L98.2793 93.2187L97.8352 93.3218L96.5369 93.6389L96.1068 93.7331L95.674 93.8388L95.5925 93.8803L95.2796 94.1456L94.9641 94.4222L93.9971 95.0792L93.6287 95.2717L93.3278 95.4315L93.3226 95.4543L93.0902 95.8941L92.8691 96.3365C92.6084 96.8432 92.1866 97.2534 91.6363 97.4738L91.0482 97.6282L90.6031 97.683L90.1833 97.7316L89.91 97.9817L89.5919 98.2698C89.2204 98.6058 88.7888 98.8627 88.3053 99.0102L87.9042 99.1352L87.5058 99.2487L86.9249 99.4768L86.5503 99.6438L86.1845 99.8249L85.0893 100.2L84.6732 100.286L84.2659 100.385L83.2545 100.551L82.8374 100.588L82.4062 100.634L81.8171 100.74L81.4213 100.843L81.2685 100.88L81.0501 101.311L80.7792 101.814C80.5622 102.228 80.2419 102.645 79.7791 102.932L79.2668 103.176L78.4875 103.431L77.5264 103.693L77.1191 103.792L76.7144 103.88L75.557 104.001L75.1223 104.01L74.6901 104.008L74.1738 104.058L73.3644 104.234L72.207 104.355L71.7749 104.353L71.4648 104.342L71.1914 104.593L70.8365 104.884C70.4085 105.245 69.8992 105.452 69.3563 105.472L68.801 105.43L68.3528 105.34L67.9846 105.268L67.7066 105.433L67.3242 105.634C66.6485 106.001 65.9205 106.012 65.2718 105.779L64.8164 105.615L64.3952 105.459L64.096 105.559L63.7063 105.687C63.775 105.664 63.7451 105.644 63.6398 105.768L62.9464 106.595C62.6079 106.993 62.1348 107.335 61.5486 107.455L60.9154 107.491L60.491 107.454L60.0641 107.429L59.9025 107.452L59.5077 107.602L59.1102 107.764C58.4424 108.025 57.8149 107.917 57.3032 107.677L56.8369 107.402L56.6002 107.228L56.4094 107.485C56.1498 107.809 55.7188 108.193 55.0843 108.289C54.7594 108.338 54.4576 108.301 54.1987 108.219L53.5434 107.878L52.637 107.214C52.5964 107.185 52.569 107.167 52.5534 107.159L52.2178 107.155L51.8111 107.146L51.8225 107.149L51.7945 107.166L51.4042 107.402L51.0026 107.635C50.7536 107.783 50.5004 107.941 50.2476 108.1L49.8547 108.347L49.4505 108.591C48.9139 108.929 48.3146 109.035 47.7315 108.909L47.1644 108.707L46.7422 108.503L46.452 108.353L46.2405 108.437L45.8342 108.584C45.3479 108.757 44.8361 108.81 44.3195 108.744L43.8977 108.696L43.4786 108.636L42.2981 108.331L41.8884 108.178L41.4813 108.013L41.4242 108L41.0018 108.06L40.5909 108.122C40.4262 108.147 40.2458 108.194 40.0537 108.264L39.2131 108.578C38.9783 108.664 38.7337 108.725 38.4863 108.76L37.7363 108.782L36.9104 108.714L35.6879 108.435L35.2781 108.282L34.8798 108.131L33.8605 107.646L33.4804 107.415L33.3449 107.324L33.1423 107.422L32.6913 107.608C32.1915 107.814 31.635 107.877 31.0904 107.724L30.554 107.493L30.1801 107.288L29.8089 107.071L29.3917 107.108L28.9544 107.129C28.0135 107.189 27.3008 106.694 26.882 106.043L26.6968 105.749L26.1949 105.947C25.8471 106.077 25.3843 106.174 24.8812 106.068C24.6125 106.011 24.3764 105.902 24.1698 105.762L23.6361 105.255L23.3637 104.869L23.0886 104.494L22.8156 104.215L22.4864 103.972L22.1458 103.726C21.9521 103.585 21.7749 103.429 21.6158 103.256L21.1918 102.691L20.9624 102.326L20.7357 101.95L20.5083 101.682L20.1958 101.418L19.9123 101.185L19.8324 101.167L19.3192 101.098L18.8087 101.018C18.392 100.958 17.8918 100.78 17.5069 100.349C17.3161 100.134 17.1896 99.9004 17.1089 99.669L16.9842 99.0035L16.9591 98.4809L16.953 98.1911L16.8782 98.15L16.5122 97.9103L15.8242 97.5011L15.4213 97.265L15.0158 97.0404C14.603 96.8082 14.2402 96.4293 14.0597 95.909C13.8926 95.4236 13.936 94.9528 14.0237 94.5907L14.1461 94.0537L13.8646 93.9174C13.6396 93.801 13.425 93.6646 13.2249 93.5072L12.6737 92.9728L12.3996 92.646L12.1282 92.3076C11.9751 92.1205 11.8354 91.9219 11.7234 91.7106L11.4563 91.0367L11.3314 90.6356L11.2205 90.2257L10.9826 89.3181L10.8972 88.902L10.7977 88.4947C10.6726 87.9316 10.7298 87.3726 10.8829 86.8555L11.0152 86.3808L11.1588 85.9087C11.1728 85.8614 11.1785 85.8295 11.1796 85.8173L11.0812 85.4584L10.9791 85.0625L10.795 84.5518L10.6166 84.1746L10.4355 83.8088L10.1346 83.2834L9.86837 82.9223L9.61617 82.5523C9.28023 82.0777 9.08226 81.5206 9.07597 80.9147L9.07311 80.5054L9.06143 80.0821L9.02312 79.881L8.83585 79.4898L8.66002 79.1011L8.29028 78.1395L8.15392 77.7358L8.02899 77.3347C7.96383 77.1306 7.91705 76.9221 7.88239 76.7123L7.82098 76.0854L7.8093 75.662L7.80644 75.2527C7.79735 74.7704 7.88804 74.2994 8.05301 73.8546L8.21171 73.422L8.34596 73.0439L8.25111 72.7218L8.12619 72.3208L7.87331 71.3737L7.78787 70.9576L7.69982 70.5529C7.52912 69.7552 7.78974 69.0367 8.19146 68.5015L8.50129 68.0913L8.81373 67.6697L8.81894 67.6469L8.82692 67.3482L8.82406 66.9389L8.76391 66.781L8.5564 66.3731L8.34007 65.9512C8.20595 65.6865 8.11272 65.4022 8.06375 65.1069L8.07265 64.1715L8.15238 63.769L8.22328 63.3524L8.22589 63.341L8.21345 63.2901L8.07088 62.861L7.92571 62.4433C7.64843 61.642 7.82411 60.8558 8.28343 60.2411L8.57663 59.8512L8.81993 59.5221L8.79464 59.2639L8.75751 58.8468L8.6488 58.2691L8.53168 57.8337L8.41196 57.4098L8.19916 56.3397L8.1532 55.9085L8.10464 55.4888C8.00642 54.6641 8.3428 53.9643 8.83 53.4666L9.15849 53.1328L8.95358 52.7135C8.79047 52.3828 8.66855 51.9827 8.69306 51.5363C8.71876 51.078 8.89327 50.6693 9.13429 50.3388L9.39943 49.9666L9.676 49.5969L9.69263 49.5767L9.70742 49.1954L9.73001 48.7799L9.69607 48.2433L9.61584 47.8043L9.54964 47.3566C9.47419 46.8819 9.5575 46.393 9.80763 45.961C10.0424 45.5576 10.3739 45.2766 10.6793 45.09L10.9853 44.9073L10.8556 44.6855C10.6693 44.342 10.5053 43.8697 10.577 43.3239C10.6527 42.7509 10.9519 42.3065 11.2972 42.0097L11.6829 41.6889L12.0264 41.3946L12.0686 41.1038L12.137 40.6987C12.2019 40.3272 12.3054 39.9648 12.4441 39.6148L12.6038 39.2305L12.7521 38.8437L13.0933 38.032L13.2645 37.6503L13.433 37.2801L13.5304 36.9057L13.5899 36.4865L13.6379 36.0648C13.6795 35.7227 13.7396 35.381 13.8214 35.0489L13.9266 34.6402L14.0203 34.2289L14.254 33.573C14.3484 33.3654 14.4616 33.1666 14.594 32.9774L14.8426 32.6254L15.077 32.2822L15.549 31.7407C15.7179 31.5786 15.8999 31.4314 16.0942 31.3001L16.8622 30.778L17.0883 30.5772L17.3113 30.2314L17.5432 29.8996L17.9202 29.3004L18.1204 28.9494L18.332 28.601L18.8384 27.803L19.0843 27.4624L19.3162 27.1306L19.702 26.5455L19.9136 26.1971L20.0701 25.9323C20.0694 25.9202 20.0709 25.9003 20.0691 25.884L20.0149 25.3308L19.9493 24.7749C19.9054 24.3689 19.942 23.8242 20.2801 23.3239C20.628 22.8098 21.1387 22.5725 21.5672 22.4754L21.9517 22.3707L21.9602 21.964C21.9627 21.1819 22.2952 20.3326 23.1791 19.8861L23.587 19.6786L23.9808 19.4799L24.185 19.3221L24.735 18.7022L25.3264 18.164C25.5448 18.0143 25.7869 17.8903 26.0352 17.7967L26.444 17.6375L26.63 17.5597L26.7164 17.339L26.8777 16.895L27.341 16.0751C27.5403 15.8304 27.7882 15.6177 28.0842 15.4512L28.4438 15.2447L28.8174 15.0294C29.1435 14.8461 29.4892 14.7011 29.8456 14.5787L30.2633 14.4335L30.667 14.2971L31.3523 14.0327L32.1244 13.7038L32.1384 13.695C32.1411 13.6928 32.1443 13.6807 32.1576 13.6633L32.429 13.3165L32.6863 12.9785C32.9106 12.6823 33.159 12.4019 33.4281 12.15L33.7347 11.8593L34.0387 11.5801L34.6208 11.1358C34.8246 11.0125 35.0399 10.9068 35.2682 10.8266L35.6719 10.6903L36.0641 10.5513L36.6803 10.3793C36.8908 10.3388 37.1056 10.32 37.3213 10.309L37.6761 10.2817L37.752 10.1067L37.9622 9.55369L38.1911 9.077C38.4799 8.59665 38.9418 8.15357 39.6409 7.9892L40.0482 7.88973L40.4669 7.79287L41.1112 7.60316L41.5148 7.46681L41.9097 7.31643C42.1385 7.23485 42.3681 7.14995 42.595 7.05196L42.995 6.87872L43.3811 6.71431L44.5651 6.3712L45.4097 6.25123L46.5972 6.20939L47.0329 6.24862L47.4573 6.28525L48.386 6.37673L48.8077 6.42479L49.1926 6.47646L49.5978 6.28037L49.9917 6.08168L50.4795 5.8924C50.8055 5.80269 51.1429 5.78553 51.479 5.83174L51.9817 5.94633L52.4028 6.10243L52.8266 6.24709L53.5562 6.47351L53.9624 6.59011L54.3711 6.6953C54.4753 6.7239 54.5696 6.73315 54.6645 6.72613L55.0791 6.70042L55.4962 6.66329L56.305 6.59523L57.1392 6.52096L58.1563 6.48837L58.5858 6.50214L59.0039 6.51332L59.8256 6.65252C60.0869 6.73689 60.3398 6.86169 60.5723 7.01503L60.9269 7.25212L61.2929 7.4918L61.8568 7.81264L62.2245 7.9926L62.6035 8.17516L62.8637 8.24648L63.2995 8.28571L63.7265 8.31092L64.6728 8.43047L65.0919 8.48995L65.5199 8.56345L65.9971 8.68426C66.1501 8.73924 66.2937 8.81037 66.4307 8.89127L67.1544 9.51296L67.4461 9.86791L67.6241 10.0888L67.8833 10.1118L68.3305 10.1536L69.458 10.3746L69.873 10.5052L70.2791 10.6218L70.9298 10.8783C71.1365 10.9851 71.3296 11.1179 71.5149 11.2641L71.8415 11.5188L72.1768 11.7876L72.912 12.4119L73.2193 12.6983L73.524 12.9961L73.7862 13.164L74.5547 13.4835L75.2048 13.848C75.4045 13.9914 75.5862 14.1598 75.7525 14.3454L76.3287 14.9816L76.4097 15.0481L76.8194 15.2016L77.2177 15.3525L78.304 15.9126L78.6357 16.1445L78.9763 16.3904L79.6413 17.0588C79.8155 17.3118 79.9434 17.5879 80.0334 17.8693L80.1885 18.3494L80.6787 18.413L81.2412 18.5292C81.6051 18.6506 81.9339 18.8623 82.2038 19.1573L82.5583 19.6588L82.7684 20.0552L82.8727 20.2833L83.1417 20.3687L83.5821 20.4931L84.1501 20.7428C84.3287 20.8546 84.4948 20.9971 84.6423 21.1675C84.7872 21.3349 84.8929 21.5184 84.9775 21.7006L85.1652 22.2482L85.2693 22.7407L85.2667 22.7521L85.7263 22.8448L86.2555 23.0015C86.5903 23.1403 86.8969 23.3496 87.1444 23.6368L87.4645 24.1305L87.8619 24.9182L88.0197 25.1224L88.6395 25.6724L88.8233 25.7623L89.2866 25.892L89.7358 26.0304C90.0163 26.1114 90.2949 26.2236 90.5448 26.3831L91.2114 26.9918L91.7366 27.6403L92.1611 28.3621C92.2678 28.6156 92.3466 28.8812 92.3907 29.1476L92.4719 29.6349L92.4755 29.6718L92.5072 29.691L92.9819 29.8232C93.4216 29.9552 93.861 30.2386 94.1604 30.7169C94.3031 30.9448 94.3887 31.1781 94.4363 31.4048L94.4837 32.0406L94.4641 32.601L94.4421 32.9085L94.4712 32.9392L94.8232 33.1877C95.2244 33.4775 95.5573 33.8412 95.8011 34.276L96.1409 34.8943L96.5481 35.0592L96.9869 35.2434L97.6941 35.6209C97.9141 35.7755 98.1205 35.9627 98.2999 36.1797L98.5651 36.4925L98.8277 36.8168L99.2964 37.3443L99.883 37.9348L100.414 38.7169L100.66 39.5902L100.709 40.0582L100.751 40.4525L100.969 40.6583L101.262 40.9535L102.024 41.8843L102.465 42.5858L102.785 43.2358C102.868 43.4621 102.925 43.6984 102.962 43.9371L103.1 44.8098L103.106 44.8353L103.371 45.1482ZM58.492 9.4976L58.0738 9.48643L57.409 9.50315L56.9892 9.55171L56.5721 9.58885L55.715 9.65791L55.3119 9.68622L54.8948 9.72335C54.4451 9.75762 54.0003 9.70895 53.5673 9.58902L53.1611 9.47241L52.7524 9.36723L51.8337 9.07369L51.41 8.92902L51.1664 8.83745L50.9446 8.96717L50.5393 9.16325C50.0195 9.42455 49.4417 9.53903 48.8484 9.46293L48.4292 9.40345L48.0075 9.3554L47.2211 9.27231L46.7854 9.23308L46.3584 9.20787L45.8385 9.22157L45.4275 9.28416L45.0052 9.34414L44.5699 9.46126L44.1812 9.6371L43.7952 9.80151C43.505 9.92704 43.2052 10.0474 42.9099 10.1526L42.1254 10.4305L41.1476 10.7125L40.7403 10.8119L40.678 10.8218L40.549 11.177L40.3388 11.73C40.2107 12.0637 39.9979 12.4371 39.652 12.7393C39.4693 12.8982 39.2671 13.0206 39.0513 13.1072L38.3551 13.2611L37.4804 13.3021L37.0529 13.3849L36.2684 13.6628L36.0886 13.7661L35.4753 14.3474C35.335 14.4791 35.1983 14.6222 35.075 14.7851L34.8151 15.1345L34.5578 15.4725C34.3957 15.6865 34.2034 15.8767 33.9954 16.0414L33.2991 16.4596L32.9245 16.6266L32.5385 16.791L31.6443 17.1281L31.2266 17.2733L30.8229 17.4096C30.6326 17.475 30.452 17.5559 30.2878 17.6482L29.9168 17.8521L29.6554 17.9969L29.5378 18.3547L29.3905 18.7899C29.2066 19.3035 28.873 19.7375 28.4215 20.0353L27.9295 20.2958L27.0888 20.609C27.0365 20.6287 27.0147 20.6427 27.0073 20.6505L26.7297 20.9718L26.4661 21.2844C26.3065 21.4698 26.1232 21.63 25.9334 21.7759L25.3275 22.1667L24.9477 22.3565L24.9481 22.5129L24.9452 23.0531L24.8539 23.7174C24.7847 23.9493 24.6772 24.1868 24.5044 24.4069C24.3291 24.629 24.1195 24.7979 23.9067 24.9198L23.2609 25.1692L23.0116 25.2085L23.0503 25.5659L23.0352 26.4759C22.9831 26.7919 22.8732 27.1149 22.6881 27.4185L22.2649 28.1153L21.7548 28.8764L21.2911 29.5399C21.1609 29.7223 21.0342 29.9114 20.9219 30.1048L20.7217 30.4558L20.5101 30.8042L20.0203 31.582L19.7973 31.9278L19.5654 32.2596C19.4282 32.4611 19.273 32.6492 19.1022 32.8151L18.543 33.2645L17.775 33.7866L17.5323 34.0077L17.2978 34.3509L17.0519 34.6915L16.9349 34.9413L16.8411 35.3526L16.7359 35.7613C16.6836 35.9738 16.649 36.1969 16.6218 36.4204L16.5597 36.851L16.5116 37.2727C16.4598 37.6993 16.3467 38.112 16.1706 38.5051L15.9995 38.8867L15.831 39.257L15.5386 39.9596L15.3929 40.335L15.2332 40.7193C15.1704 40.8778 15.1258 41.0448 15.0958 41.2168L15.0275 41.6219L14.9566 42.0385C14.8969 42.3761 14.77 42.6766 14.6059 42.9441L14.0009 43.6476L13.794 43.8168L14.0218 44.2413L14.2696 44.9468C14.3149 45.2144 14.3169 45.5126 14.2254 45.8262C14.1351 46.1337 13.9756 46.3838 13.8006 46.5827L13.2528 47.0348L12.7477 47.3523L12.596 47.438L12.654 47.7637L12.7239 48.9335L12.6787 49.7645L12.5088 50.6152L12.098 51.3629L11.8329 51.7352L11.8188 51.744L11.8691 51.8396L12.0891 52.2984C12.2717 52.6673 12.3953 53.1276 12.3132 53.6356C12.2721 53.8886 12.1835 54.1149 12.0743 54.3143L11.6901 54.8397L11.331 55.2026L11.1137 55.4175L11.1308 55.5536L11.1767 55.9847L11.3093 56.6159L11.429 57.0398L11.5461 57.4752L11.7397 58.577L11.7883 58.9967L11.8254 59.4138L11.8162 59.9286C11.7973 60.0947 11.7672 60.2569 11.7183 60.4111L11.2726 61.259L10.9794 61.6489L10.863 61.7906L10.9018 61.8836L11.047 62.3013L11.2169 63.0853C11.2399 63.3544 11.2258 63.6293 11.1743 63.9049L11.0946 64.3074L11.0331 64.6299L11.2344 65.0123L11.4419 65.4202L11.71 66.1424C11.7747 66.3904 11.8203 66.6469 11.8227 66.9133L11.8284 67.7319L11.658 68.6907L11.2165 69.4674L10.9041 69.889L10.6826 70.1751L10.7199 70.3278L10.8053 70.7439L10.9846 71.4338L11.2345 72.236L11.3617 73.1544L11.184 74.0394L11.0253 74.472L10.8578 74.8905C10.8118 75.0144 10.8003 75.1152 10.8015 75.1902L10.8132 75.6135L10.816 76.0228L10.8812 76.4223L11.0176 76.826L11.1425 77.2271L11.3857 77.8474L11.5616 78.2361L11.7488 78.6273L11.9764 79.3162C12.0308 79.5537 12.0598 79.7969 12.0627 80.045L12.0744 80.4684L12.0762 80.8294L12.3196 81.1853L12.5832 81.5579L13.1462 82.5156L13.5031 83.27L13.8827 84.294L14.0868 85.0858L14.1813 85.9366C14.1695 86.2196 14.1083 86.4935 14.0307 86.7557L13.8985 87.2303L13.7522 87.7138C13.7358 87.7707 13.7272 87.8097 13.7262 87.8281L13.735 87.8421L13.8204 88.2582L13.9199 88.6655L14.1028 89.3923L14.2163 89.7908L14.3386 90.2033L14.4481 90.4085L14.7195 90.7468L14.9936 91.0737L15.2391 91.2619L15.6815 91.483L16.1214 91.7154C16.5301 91.9269 16.9258 92.2822 17.1335 92.8115C17.2318 93.0621 17.2746 93.3097 17.2796 93.5419L17.2049 94.186L17.0658 94.7432L17.299 94.8805L18.1541 95.3999L18.5202 95.6396L18.8748 95.8767L19.3467 96.2848C19.6104 96.5848 19.7755 96.9328 19.8624 97.2917L19.9332 97.8247L19.9428 98.1514L20.2565 98.1989L21.0714 98.4207L21.8341 98.871L22.4363 99.3929L22.8978 99.8466C23.0387 100.012 23.1665 100.194 23.2813 100.379L23.74 101.108L23.9004 101.301L24.2436 101.536L24.5728 101.779L25.0852 102.22C25.2421 102.38 25.3876 102.558 25.5196 102.74L25.6571 102.928L25.68 102.933L26.2302 102.734L26.8666 102.578C27.1053 102.555 27.3632 102.57 27.6327 102.645C27.9133 102.723 28.1544 102.855 28.3539 103.013L28.8455 103.546L29.1189 103.981L29.2009 104.096L29.6357 104.087L30.487 104.149L31.2924 104.464L31.6637 104.681L31.7727 104.73L31.9956 104.649L32.4466 104.463L32.9749 104.307C33.3387 104.241 33.7137 104.257 34.0792 104.366L34.6156 104.597L34.9957 104.828L35.3898 105.05L35.9527 105.322L36.3484 105.485L36.7467 105.636L37.158 105.729L37.9838 105.797L38.1735 105.756L38.5938 105.6L39.0255 105.446C39.3953 105.31 39.7788 105.209 40.1622 105.152L40.5731 105.089L40.9814 105.038L41.7912 105.019C42.0554 105.05 42.313 105.121 42.5629 105.219L42.9841 105.375L43.3912 105.54L43.8685 105.66L44.2762 105.717L44.6979 105.765C44.7368 105.77 44.7776 105.779 44.8314 105.76L45.644 105.464L46.1646 105.342C46.5085 105.298 46.8474 105.324 47.1696 105.415L47.6453 105.596L48.0648 105.812L48.1625 105.858L48.2581 105.808L48.6509 105.561C48.9268 105.387 49.2025 105.214 49.4761 105.051L49.8777 104.819L50.268 104.583L51.026 104.263C51.2946 104.188 51.5752 104.148 51.8681 104.154L52.2862 104.166L52.6955 104.163L53.635 104.365C53.9212 104.478 54.1836 104.626 54.4144 104.795L54.5992 104.933L54.7962 104.702L55.329 104.21C55.5499 104.064 55.8165 103.947 56.1327 103.9C56.454 103.854 56.7502 103.887 57.0069 103.968L57.6621 104.309L58.1268 104.643L58.375 104.82L58.4119 104.817L58.8093 104.655L59.5387 104.461C59.7884 104.423 60.0467 104.411 60.3028 104.43L60.7272 104.467L60.7983 104.471L61.0068 104.242L61.3535 103.828C61.7108 103.407 62.178 103.036 62.7685 102.841L63.1608 102.702L63.5504 102.574L64.4917 102.452C64.7979 102.465 65.0958 102.53 65.3767 102.63L65.8321 102.794L66.1011 102.879L66.2757 102.799L66.6467 102.595L67.5444 102.295C67.8479 102.25 68.1597 102.255 68.4659 102.313L68.9027 102.4L69.0995 102.433L69.2617 102.302L69.6052 102.007L70.4111 101.53C70.7059 101.418 71.0269 101.361 71.3628 101.362L71.7835 101.362L72.2157 101.364L72.7206 101.311L73.53 101.135L74.6785 101L75.5428 101.005L76.0732 100.946L76.8826 100.77L77.5356 100.594L77.9279 100.455L78.1367 100.382L78.3858 99.9223L78.6453 99.4165L79.2624 98.6077C79.5248 98.3654 79.8534 98.16 80.2543 98.0525L81.0461 97.8483L82.1022 97.6444L82.5307 97.6098L82.9505 97.5613L83.6107 97.4594L84.018 97.3599L84.4341 97.2745L84.9053 97.1054L85.2799 96.9384L85.6572 96.76L86.6329 96.3814L87.0314 96.2679L87.4324 96.143C87.4818 96.1277 87.5316 96.1047 87.5842 96.0574L87.9022 95.7693L88.2229 95.4698L88.9577 94.9882C89.2236 94.8688 89.5079 94.7957 89.8029 94.7602L90.2481 94.7054L90.3359 94.6894L90.4233 94.517L90.6557 94.0772L91.1553 93.3617C91.3586 93.1452 91.5988 92.9545 91.8829 92.8064L92.2513 92.6139L92.6083 92.4189L92.9897 92.1693L93.3051 91.8926L93.6066 91.6248L94.2598 91.1847C94.4922 91.0669 94.7385 90.9793 94.9934 90.9192L95.4147 90.8109L95.8448 90.7167L96.6963 90.5141L97.5618 90.3027L97.8294 90.1834L98.1739 89.9375L98.5158 89.7029L98.6156 89.5814L99.0369 88.788L99.5734 88.0689C99.7901 87.861 100.043 87.6878 100.327 87.5557L100.73 87.371L101.119 87.1952L101.433 86.9783L101.748 86.7016L102.055 86.4109L102.441 85.9821L102.956 85.3062L102.971 85.2376L103.023 84.7447L103.084 84.2658C103.142 83.7812 103.282 83.2964 103.538 82.8549L103.939 82.1528L104.476 81.4821C104.682 81.293 104.918 81.1412 105.16 81.013L105.571 80.794L105.615 80.7561L105.62 80.7333L105.631 80.2669C105.641 79.7317 105.776 79.1933 106.07 78.7083L106.282 78.3599L106.491 78.023L106.582 77.7794L106.662 77.3769L106.73 76.9718C106.825 76.4616 107.041 76.0003 107.344 75.5973L107.432 75.4732C107.3 75.1296 107.285 74.7782 107.344 74.4914C107.424 74.1053 107.625 73.8015 107.76 73.6128L108.025 73.2406L108.279 72.8657L108.296 72.8454L108.325 72.4554L108.359 72.0425L108.315 71.7079L108.204 71.298L108.096 70.8767C107.935 70.279 107.974 69.6729 108.198 69.1092L108.363 68.702L108.406 68.5675L108.329 68.4298L108.084 68.0256C107.966 67.8308 107.864 67.6268 107.779 67.4151L107.569 66.7542L107.416 65.95C107.285 65.285 107.432 64.6618 107.696 64.139L107.876 63.7713L107.612 63.5068C107.274 63.1775 106.994 62.7577 106.861 62.2659L106.774 61.7532L106.759 61.3413L106.734 60.9268L106.672 60.6722L106.337 59.923C106.211 59.6445 106.129 59.3611 106.098 59.0751L106.137 58.2186L106.218 57.7564L106.263 57.4541L106.137 57.2691L105.891 56.9246C105.724 56.689 105.588 56.4389 105.497 56.1738L105.349 55.3468L105.329 54.9094L105.308 54.5801L105.095 54.3514L104.796 54.0307C104.61 53.831 104.449 53.6077 104.322 53.3697L104.036 52.6195L103.939 52.2008L103.861 51.8584L103.553 51.572L103.223 51.2804C102.701 50.8122 102.481 50.2162 102.47 49.6302L102.529 49.0547L102.634 48.538L102.636 48.4782L102.313 48.2604L101.354 47.4048L101.089 47.092L100.812 46.7765C100.628 46.5604 100.484 46.3237 100.371 46.075L100.133 45.2754L99.9953 44.4027L99.9165 44.1684L99.4842 43.4809L99.1951 43.1146L98.8878 42.8282L98.5831 42.5303C98.3407 42.2975 98.148 42.0353 98.0153 41.7519L97.7749 40.8557L97.7253 40.3877L97.6768 39.968L97.453 39.7367L97.1598 39.4415L96.5166 38.73L96.254 38.4057L95.9888 38.0928L95.98 38.0788L95.9685 38.0762L95.8709 38.0299L95.4321 37.8457L94.9907 37.673C94.7081 37.5597 94.4348 37.4029 94.1963 37.2035L93.5927 36.4769L93.3888 36.1059L93.1823 35.7464C93.1563 35.7 93.1203 35.6632 93.066 35.6237L92.728 35.3664L92.376 35.1179C91.7988 34.7005 91.5461 34.1218 91.468 33.5647L91.434 33.0281L91.4598 32.4932L91.1882 32.4192C90.8103 32.3058 90.4238 32.093 90.1166 31.7423C89.965 31.5688 89.8464 31.3839 89.7611 31.1925L89.5838 30.5992L89.514 30.1145L89.4302 29.6387C89.4204 29.5794 89.4029 29.5381 89.3965 29.5228L89.3991 29.5114L89.1365 29.1871L88.9117 28.9075L88.4485 28.7779L87.9967 28.6509C87.7547 28.581 87.519 28.477 87.2941 28.3585L86.6482 27.9228L86.0283 27.3729C85.8491 27.2143 85.6876 27.0412 85.5456 26.8542L85.1777 26.2535L84.979 25.8596L84.9225 25.7386L84.6914 25.6979L84.2177 25.614C83.8159 25.5382 83.3916 25.356 83.0452 25.0102C82.8739 24.8383 82.7419 24.644 82.6441 24.45L82.4413 23.8629L82.3372 23.3704L82.3062 23.2432L82.2947 23.2406L81.8543 23.1161C81.3478 22.9666 80.9152 22.6766 80.5916 22.2754L80.3067 21.8379L80.0966 21.4414L80.0551 21.3599L79.89 21.3462L79.4059 21.308C79.0052 21.2683 78.5716 21.1226 78.1959 20.8159C78.0076 20.6618 77.8535 20.4869 77.7361 20.3024L77.4798 19.7392L77.3248 19.2591L77.1786 18.7931L76.9216 18.6023L76.5784 18.3678L76.1703 18.1546L75.772 18.0037L75.3597 17.8617C75.1143 17.7698 74.8857 17.6458 74.6727 17.5008L74.0819 16.9815L73.8053 16.666L73.5172 16.3479L73.3843 16.2455L73 16.0858L72.6043 15.9235C72.3932 15.8335 72.1959 15.7191 72.0061 15.5949L71.4745 15.1852L71.1698 14.8874L70.8625 14.601L70.3184 14.1404L69.983 13.8717L69.6565 13.617C69.5899 13.5647 69.5135 13.5187 69.4207 13.4911L68.6085 13.2579L68.046 13.1417L67.1516 13.058C66.6245 13.006 66.1559 12.8017 65.7693 12.4785L65.4065 12.1194L65.1148 11.7644L64.8989 11.4988L64.6309 11.4618L64.2143 11.3909L63.4648 11.3042L62.6162 11.2309C62.3884 11.2116 62.1647 11.173 61.9456 11.1142L61.2924 10.8691L60.9221 10.7006L60.5545 10.5206L59.6396 9.99958L59.2735 9.75989L58.9189 9.52281L58.8987 9.50617L58.492 9.4976Z" fill="black"/>
<ellipse cx="39.5195" cy="40" rx="3" ry="4" fill="black"/>
<ellipse cx="33.5195" cy="72" rx="3" ry="4" fill="black"/>
<ellipse cx="65.5195" cy="44" rx="3" ry="4" fill="black"/>
<ellipse cx="76.5195" cy="66" rx="3" ry="4" fill="black"/>
<ellipse cx="59.5195" cy="83" rx="3" ry="4" fill="black"/>
<ellipse cx="46.0195" cy="60" rx="2.5" ry="2" fill="#070707"/>
<ellipse cx="65.0195" cy="68" rx="2.5" ry="2" fill="#070707"/>
<ellipse cx="41.0195" cy="89" rx="2.5" ry="2" fill="#070707"/>
<ellipse cx="56.0195" cy="29" rx="2.5" ry="2" fill="#070707"/>
</svg>
